<svg width="175" height="37" viewBox="0 0 175 37" fill="none" xmlns="http://www.w3.org/2000/svg">
<path d="M53.517 10.5455H58.0682L62.875 22.2727H63.0795L67.8864 10.5455H72.4375V28H68.858V16.6392H68.7131L64.196 27.9148H61.7585L57.2415 16.5966H57.0966V28H53.517V10.5455ZM81.3246 28.2557C80.0007 28.2557 78.8558 27.9744 77.8899 27.4119C76.9297 26.8437 76.1882 26.054 75.6655 25.0426C75.1428 24.0256 74.8814 22.8466 74.8814 21.5057C74.8814 20.1534 75.1428 18.9716 75.6655 17.9602C76.1882 16.9432 76.9297 16.1534 77.8899 15.5909C78.8558 15.0227 80.0007 14.7386 81.3246 14.7386C82.6484 14.7386 83.7905 15.0227 84.7507 15.5909C85.7166 16.1534 86.4609 16.9432 86.9837 17.9602C87.5064 18.9716 87.7678 20.1534 87.7678 21.5057C87.7678 22.8466 87.5064 24.0256 86.9837 25.0426C86.4609 26.054 85.7166 26.8437 84.7507 27.4119C83.7905 27.9744 82.6484 28.2557 81.3246 28.2557ZM81.3416 25.4432C81.9439 25.4432 82.4467 25.2727 82.8501 24.9318C83.2536 24.5852 83.5575 24.1136 83.7621 23.517C83.9723 22.9205 84.0774 22.2415 84.0774 21.4801C84.0774 20.7188 83.9723 20.0398 83.7621 19.4432C83.5575 18.8466 83.2536 18.375 82.8501 18.0284C82.4467 17.6818 81.9439 17.5085 81.3416 17.5085C80.7337 17.5085 80.2223 17.6818 79.8075 18.0284C79.3984 18.375 79.0888 18.8466 78.8786 19.4432C78.674 20.0398 78.5717 20.7188 78.5717 21.4801C78.5717 22.2415 78.674 22.9205 78.8786 23.517C79.0888 24.1136 79.3984 24.5852 79.8075 24.9318C80.2223 25.2727 80.7337 25.4432 81.3416 25.4432ZM101.911 14.9091L97.3345 28H93.2436L88.6669 14.9091H92.5021L95.2209 24.2756H95.3572L98.0675 14.9091H101.911ZM103.769 28V14.9091H107.4V28H103.769ZM105.593 13.2216C105.053 13.2216 104.59 13.0426 104.204 12.6847C103.823 12.321 103.633 11.8864 103.633 11.3807C103.633 10.8807 103.823 10.4517 104.204 10.0938C104.59 9.73011 105.053 9.54829 105.593 9.54829C106.133 9.54829 106.593 9.73011 106.974 10.0938C107.36 10.4517 107.553 10.8807 107.553 11.3807C107.553 11.8864 107.36 12.321 106.974 12.6847C106.593 13.0426 106.133 13.2216 105.593 13.2216ZM116.274 28.2557C114.928 28.2557 113.768 27.983 112.797 27.4375C111.831 26.8864 111.087 26.108 110.564 25.1023C110.041 24.0909 109.78 22.8949 109.78 21.5142C109.78 20.1676 110.041 18.9858 110.564 17.9688C111.087 16.9517 111.822 16.1591 112.771 15.5909C113.726 15.0227 114.845 14.7386 116.129 14.7386C116.993 14.7386 117.797 14.8778 118.541 15.1562C119.291 15.429 119.945 15.8409 120.501 16.392C121.064 16.9432 121.501 17.6364 121.814 18.4716C122.126 19.3011 122.283 20.2727 122.283 21.3864V22.3835H111.229V20.1335H118.865C118.865 19.6108 118.751 19.1477 118.524 18.7443C118.297 18.3409 117.982 18.0256 117.578 17.7983C117.18 17.5653 116.717 17.4489 116.189 17.4489C115.638 17.4489 115.149 17.5767 114.723 17.8324C114.303 18.0824 113.973 18.4205 113.734 18.8466C113.496 19.267 113.374 19.7358 113.368 20.2528V22.392C113.368 23.0398 113.487 23.5994 113.726 24.071C113.97 24.5426 114.314 24.9062 114.757 25.1619C115.2 25.4176 115.726 25.5455 116.334 25.5455C116.737 25.5455 117.107 25.4886 117.442 25.375C117.777 25.2614 118.064 25.0909 118.303 24.8636C118.541 24.6364 118.723 24.358 118.848 24.0284L122.206 24.25C122.036 25.0568 121.686 25.7614 121.158 26.3636C120.635 26.9602 119.959 27.4261 119.129 27.7614C118.305 28.0909 117.354 28.2557 116.274 28.2557ZM132.808 19.392V22.2727H124.848V19.392H132.808ZM138.979 28H135.024L141.05 10.5455H145.805L151.822 28H147.868L143.496 14.5341H143.359L138.979 28ZM138.732 21.1392H148.072V24.0199H138.732V21.1392ZM153.855 32.9091V14.9091H157.435V17.108H157.597C157.756 16.7557 157.986 16.3977 158.287 16.0341C158.594 15.6648 158.991 15.358 159.48 15.1136C159.974 14.8636 160.588 14.7386 161.321 14.7386C162.276 14.7386 163.156 14.9886 163.963 15.4886C164.77 15.983 165.415 16.7301 165.898 17.7301C166.381 18.7244 166.622 19.9716 166.622 21.4716C166.622 22.9318 166.386 24.1648 165.915 25.1705C165.449 26.1705 164.813 26.929 164.006 27.446C163.205 27.9574 162.307 28.2131 161.312 28.2131C160.608 28.2131 160.009 28.0966 159.514 27.8636C159.026 27.6307 158.625 27.3381 158.312 26.9858C158 26.6278 157.761 26.267 157.597 25.9034H157.486V32.9091H153.855ZM157.409 21.4545C157.409 22.233 157.517 22.9119 157.733 23.4915C157.949 24.071 158.261 24.5227 158.67 24.8466C159.08 25.1648 159.577 25.3239 160.162 25.3239C160.753 25.3239 161.253 25.1619 161.662 24.8381C162.071 24.5085 162.381 24.054 162.591 23.4744C162.807 22.8892 162.915 22.2159 162.915 21.4545C162.915 20.6989 162.81 20.0341 162.599 19.4602C162.389 18.8864 162.08 18.4375 161.67 18.1136C161.261 17.7898 160.759 17.6278 160.162 17.6278C159.571 17.6278 159.071 17.7841 158.662 18.0966C158.259 18.4091 157.949 18.8523 157.733 19.4261C157.517 20 157.409 20.6761 157.409 21.4545ZM169.043 28V14.9091H172.673V28H169.043ZM170.866 13.2216C170.327 13.2216 169.864 13.0426 169.477 12.6847C169.097 12.321 168.906 11.8864 168.906 11.3807C168.906 10.8807 169.097 10.4517 169.477 10.0938C169.864 9.73011 170.327 9.54829 170.866 9.54829C171.406 9.54829 171.866 9.73011 172.247 10.0938C172.634 10.4517 172.827 10.8807 172.827 11.3807C172.827 11.8864 172.634 12.321 172.247 12.6847C171.866 13.0426 171.406 13.2216 170.866 13.2216Z" fill="#EEA02B"/>
<circle cx="20" cy="9" r="9" fill="#EEA02B"/>
<circle cx="31" cy="28" r="9" fill="#EEA02B"/>
<circle cx="9" cy="28" r="9" fill="#EEA02B"/>
</svg>
