<svg width="28" height="28" viewBox="0 0 28 28" fill="none" xmlns="http://www.w3.org/2000/svg">
<path d="M12.832 24.209C6.55536 24.209 1.45703 19.1107 1.45703 12.834C1.45703 6.55732 6.55536 1.45898 12.832 1.45898C19.1087 1.45898 24.207 6.55732 24.207 12.834C24.207 19.1107 19.1087 24.209 12.832 24.209ZM12.832 3.20898C7.5237 3.20898 3.20703 7.52565 3.20703 12.834C3.20703 18.1423 7.5237 22.459 12.832 22.459C18.1404 22.459 22.457 18.1423 22.457 12.834C22.457 7.52565 18.1404 3.20898 12.832 3.20898Z" fill="url(#paint0_linear_3768_6800)"/>
<path d="M23.5186 26.5883C23.4253 26.5883 23.332 26.5767 23.2503 26.565C22.702 26.495 21.7103 26.1217 21.1503 24.4533C20.8586 23.5783 20.9636 22.7033 21.442 22.0383C21.9203 21.3733 22.7253 21 23.647 21C24.837 21 25.7703 21.455 26.1903 22.26C26.6103 23.065 26.4936 24.0917 25.8286 25.0833C25.0003 26.3317 24.102 26.5883 23.5186 26.5883ZM22.8186 23.905C23.017 24.5117 23.297 24.815 23.4836 24.8383C23.6703 24.8617 24.0203 24.64 24.382 24.115C24.7203 23.6133 24.7436 23.2517 24.662 23.0883C24.5803 22.925 24.2536 22.75 23.647 22.75C23.2853 22.75 23.017 22.8667 22.8653 23.065C22.7253 23.2633 22.702 23.5667 22.8186 23.905Z" fill="url(#paint1_linear_3768_6800)"/>
<defs>
<linearGradient id="paint0_linear_3768_6800" x1="12.832" y1="1.45898" x2="12.832" y2="24.209" gradientUnits="userSpaceOnUse">
<stop stop-color="#6E7198"/>
<stop offset="1" stop-color="#60648B"/>
</linearGradient>
<linearGradient id="paint1_linear_3768_6800" x1="23.7122" y1="21" x2="23.7122" y2="26.5883" gradientUnits="userSpaceOnUse">
<stop stop-color="#6E7198"/>
<stop offset="1" stop-color="#60648B"/>
</linearGradient>
</defs>
</svg>
